<svg width="512" height="512" viewBox="0 0 512 512" fill="none" xmlns="http://www.w3.org/2000/svg">
<g id="biohazard-toxic-svgrepo-com 1">
<g id="icon">
<path id="Vector" d="M256 512C397.385 512 512 397.385 512 256C512 114.615 397.385 0 256 0C114.615 0 0 114.615 0 256C0 397.385 114.615 512 256 512Z" fill="#EF5626"/>
<path id="Vector_2" d="M256 0C114.615 0 0 114.615 0 256C0 397.385 114.615 512 256 512V0Z" fill="#906EF2"/>
<path id="Vector_3" d="M256 140.13C192.007 140.13 140.13 192.006 140.13 256C140.13 319.994 192.007 371.87 256 371.87V140.13Z" fill="#FB1FBD"/>
<path id="Vector_4" d="M256 203.991C251.929 203.991 247.929 203.694 244.001 203.169C220.122 199.976 199.226 187.401 185.128 169.262C173.32 154.068 166.269 134.992 166.269 114.26C166.269 92.229 174.222 72.066 187.395 56.449C149.75 79.55 124.636 121.084 124.636 168.489C124.636 172.716 124.844 176.893 125.234 181.017C121.467 182.741 117.745 184.65 114.086 186.763C73.032 210.465 49.618 252.982 48.435 297.133C55.373 277.916 68.86 260.947 87.938 249.932C105.894 239.566 125.939 236.134 145.001 238.764C167.759 241.904 189.097 253.713 203.802 272.796C206.221 275.935 208.478 279.25 210.513 282.776C212.548 286.301 214.291 289.914 215.8 293.578C224.974 315.854 224.532 340.238 215.872 361.517C208.618 379.341 195.624 394.984 177.668 405.35C158.589 416.365 137.15 419.561 117.039 415.96C155.866 437.012 204.395 437.993 245.448 414.29C249.108 412.177 252.622 409.909 255.998 407.509V203.991H256Z" fill="#52FF00"/>
</g>
<g id="meel">
<path id="Vector_5" d="M256 371.869C319.993 371.869 371.869 319.993 371.869 256C371.869 192.007 319.993 140.131 256 140.131C192.007 140.131 140.131 192.007 140.131 256C140.131 319.993 192.007 371.869 256 371.869Z" fill="#F691DA" fill-opacity="0.57"/>
<path id="Vector_6" d="M397.914 186.764C394.254 184.651 390.533 182.742 386.766 181.018C387.157 176.894 387.364 172.716 387.364 168.49C387.364 121.085 362.251 79.549 324.605 56.45C337.778 72.067 345.731 92.23 345.731 114.261C345.731 134.994 338.68 154.07 326.872 169.263C312.774 187.402 291.877 199.977 267.999 203.17C264.071 203.696 260.071 203.992 256 203.992C251.929 203.992 247.929 203.695 244.001 203.17C220.122 199.977 199.226 187.402 185.128 169.263C173.32 154.069 166.269 134.993 166.269 114.261C166.269 92.23 174.222 72.066 187.395 56.45C149.75 79.551 124.636 121.085 124.636 168.49C124.636 172.717 124.844 176.894 125.234 181.018C121.467 182.742 117.745 184.651 114.086 186.764C73.032 210.466 49.618 252.983 48.435 297.134C55.373 277.917 68.86 260.948 87.938 249.933C105.894 239.567 125.939 236.135 145.001 238.765C167.759 241.905 189.097 253.714 203.802 272.797C206.221 275.936 208.478 279.251 210.513 282.777C212.548 286.302 214.291 289.915 215.8 293.579C224.974 315.855 224.532 340.239 215.872 361.518C208.618 379.342 195.624 394.985 177.668 405.351C158.589 416.366 137.15 419.562 117.039 415.961C155.866 437.013 204.395 437.994 245.448 414.291C249.108 412.178 252.622 409.91 255.998 407.51C259.374 409.91 262.888 412.179 266.548 414.291C307.602 437.993 356.129 437.012 394.957 415.961C374.846 419.561 353.407 416.366 334.328 405.351C316.372 394.985 303.378 379.34 296.124 361.516C287.464 340.237 287.022 315.853 296.196 293.577C297.705 289.913 299.448 286.3 301.483 282.775C303.518 279.25 305.775 275.934 308.194 272.795C322.899 253.712 344.237 241.903 366.995 238.763C386.057 236.133 406.102 239.564 424.058 249.931C443.137 260.946 456.623 277.915 463.561 297.132C462.382 252.982 438.967 210.465 397.914 186.764Z" fill="#52FF00"/>
</g>
</g>
</svg>
